<?xml version="1.0" standalone="no"?>
<!DOCTYPE svg PUBLIC "-//W3C//DTD SVG 1.1//EN" "http://www.w3.org/Graphics/SVG/1.1/DTD/svg11.dtd" >
<svg xmlns="http://www.w3.org/2000/svg">
<metadata></metadata>
<defs>
<font id="sena_iconregular" horiz-adv-x="2048" >
<font-face units-per-em="2048" ascent="1638" descent="-410" />
<missing-glyph horiz-adv-x="500" />
<glyph unicode="&#xd;" />
<glyph horiz-adv-x="0" />
<glyph horiz-adv-x="0" />
<glyph unicode="0" d="M37 1117q9 226 174 377q166 152 390 143q226 -9 377 -174q152 -166 143 -390q-9 -226 -174 -377q-166 -152 -389 -143q-224 9 -377 174t-144 390zM193 1110q-7 -160 102 -278t269 -124t278 103t124 269q6 161 -103 277q-109 117 -269 124t-277 -102t-124 -269zM266 1028 q0 23 14 42q-20 38 -12 82q7 43 40 74q40 36 93 34t90 -42q37 -39 35 -94q-2 -54 -42 -90q-35 -34 -88 -34h-4q-18 -38 -60 -38q-26 0 -46 20t-20 46zM300 1149q6 30 30 53q29 26 66 26q42 0 72 -32q28 -29 26 -70q-1 -39 -32 -68q-26 -25 -62 -26q-2 26 -21 45t-47 19 q-14 0 -26 -6q-12 28 -6 59zM300 1149q-6 -31 6 -59q14 6 26 6q28 0 47 -19t21 -45q36 1 62 26q31 29 32 68q2 41 -26 70q-30 32 -72 32q-37 0 -66 -26q-24 -23 -30 -53zM930 620l94 88l248 -268l-94 -88zM1164 286q-14 14 2 30l144 132q16 16 30 2l638 -692q14 -14 -2 -30 l-144 -132q-16 -16 -30 0z" />
<glyph unicode="1" d="M214 477q0 81 76 139q48 34 110 48q-32 18 -54 38q-68 62 -62 144q11 83 86 130q38 21 78 32q21 5 60 10q299 10 414 4q-42 97 -42 164q0 163 62 284q86 168 266 168q60 0 142 -30q90 -34 90 -74q0 -37 -77 -90t-77 -136q0 -142 142 -250q122 -92 272 -290 q158 -217 140 -464q-17 -292 -230 -502q-212 -212 -512 -212l-478 6q-43 0 -112 32q-69 31 -80 150q-11 116 54 128q-33 0 -56 4q-47 11 -88 34q-81 47 -86 158q-6 112 52 154q55 44 66 40q-47 18 -80 44q-76 55 -76 137z" />
<glyph unicode="2" d="M384 358l112 262q238 -150 512 -220l-98 -222l-376 -328q-73 -26 -86 34zM522 678l282 604q243 -163 516 -236l-286 -610q-287 65 -512 242zM668 -260q0 28 92 84q54 -16 150 -24q31 -4 322 -16q317 -13 400 -72q0 2 10 -8q11 -11 18 -28q7 -18 6 -34q-1 -11 -46 -42 l-6 -6q-56 55 -468 86q-478 36 -478 60zM822 1324l78 268q182 74 328 18q198 -78 244 -298l-140 -214q-255 98 -510 226z" />
<glyph unicode="3" d="M0 474l42 112l260 -138l-16 -54zM38 60l268 116l32 -44l-238 -174zM326 858l118 28l30 -290l-54 -18zM392 -30q8 140 108 260q200 96 288 328l82 486q67 228 232 294v30v14q0 52 36 88q38 36 88 36q54 0 90 -36q36 -38 38 -88v-14v-38q152 -68 214 -286l52 -296l28 -152 l6 -38q85 -231 288 -326q99 -123 106 -262h-1656zM1022 -60h422v-6q0 -88 -60 -150q-65 -62 -150 -62q-88 0 -150 62t-62 150v6z" />
<glyph unicode="4" d="M0 572v154h938l-550 -958l-118 110l360 626l4 16l-2 18l-6 12l-8 8l-18 10l-24 4h-576zM98 892v4h130l-2 -8q0 -18 20 -26q19 -8 60 -8q29 0 48 8q18 6 18 18q0 18 -70 28l-24 4q-110 19 -142 40q-16 10 -24 24q-8 18 -8 32q0 43 50 66q52 24 150 24q97 0 142 -22 q47 -23 48 -64v-4h-122q-5 17 -20 24q-19 8 -54 8q-28 0 -42 -6q-16 -6 -16 -16q0 -18 80 -32l24 -2q58 -11 82 -18q26 -6 42 -16q20 -11 30 -26q10 -16 10 -36q0 -44 -54 -70q-57 -22 -160 -22q-101 0 -149 23q-47 23 -47 73zM504 -312l516 876l528 -872l-138 -74l-342 572 l-10 12l-14 8l-20 4l-20 -4l-14 -6l-10 -14l-338 -572zM562 800v294h348v-64h-218v-46h202l-2 -64l-200 2v-58h226v-64h-356zM806 1389q0 91 65 156t155 65t156 -66q64 -64 64 -155q0 -92 -64 -157q-65 -64 -156 -64q-90 0 -155 65t-65 156zM972 800v292h166l178 -196v196 l126 2v-294h-172l-172 198v-198h-126zM1100 728h948v-152h-580l-18 -6l-16 -8l-14 -16l-6 -18v-16l4 -16l358 -616l-112 -106zM1450 800l202 292l144 2l194 -294h-146l-30 52h-202l-32 -52h-130zM1650 916h130l-64 108z" />
<glyph unicode="5" d="M336 614l1024 1024l352 -354l-670 -670l670 -670l-352 -354z" />
<glyph unicode="6" d="M77 0q3 26 25 44l1532 1228q18 16 47 14q26 -1 43 -24l2 -2q16 -21 14 -48q-2 -26 -24 -42l-1532 -1230q-19 -16 -47 -13q-26 3 -43 23l-2 2q-18 22 -15 48zM316 682q6 375 180 662q13 15 26 16q14 2 24 -8q15 -13 16 -30q2 -17 -4 -34q-164 -260 -170 -606 q-4 -176 32 -338l-64 -50q-46 180 -40 388zM428 92l60 48q49 -110 118 -204q8 -18 8 -32q-2 -20 -12 -32t-26 -12q-14 0 -24 16q-76 105 -124 216zM570 640q6 231 100 410q6 15 18 16q11 4 22 -2q9 -9 14 -24q2 -15 -4 -28q-89 -167 -90 -374q-2 -66 4 -122l-54 -44 q-12 77 -10 168zM634 258l50 38q24 -62 64 -126q8 -12 6 -26q-4 -14 -12 -24q-10 -10 -22 -8t-20 14q-38 64 -66 132zM814 660q7 274 128 508q30 78 94 78q18 0 40 -6q53 -18 124 -76l112 -104zM828 412l634 510l50 -46q28 -34 14 -72q-46 -91 -46 -204q-12 -110 42 -200 q28 -34 -10 -72l-322 -298q-56 -42 -100 -56q-22 -6 -40 -6q-58 0 -96 56q-96 181 -126 388zM1546 592q-2 82 26 136q29 56 64 52q36 -2 62 -58q22 -53 22 -130q0 -75 -22 -128q-26 -56 -62 -59t-64 51q-28 52 -26 136z" />
<glyph unicode="7" d="M232 -1q0 4 1 6l3 6q0 1 1.5 3t2.5 4l524 524l-522 524q-18 18 -2 48q35 59 98 125q65 68 116 87q34 14 48 0l524 -524l522 524q18 18 50 0q54 -29 125 -97q67 -64 87 -115q14 -34 0 -48l-524 -524l524 -524q14 -14 0 -48q-19 -53 -92 -126t-120 -86q-38 -12 -50 0 l-522 524l-526 -524q-12 -14 -48 -2q-53 19 -126 92q-72 72 -86 122q0 1 -2 7t-3 7t-1 3q-1 3 -1 4q-1 3 -1 8z" />
<glyph unicode="8" d="M0 616q0 207 81 398q81 190 219 327q139 137 327 218q189 81 398 81t398 -81t326 -218t218 -327t81 -398t-81 -398t-218 -327t-326 -218t-398 -81t-398 81q-188 81 -327 218q-138 137 -219 327t-81 398zM74 616q0 -196 76 -370q77 -177 203 -303q127 -127 303 -202 t369 -75t369 75t303 202t202 303q75 175 75 370q0 194 -75 370t-202 303t-303 202t-369 75t-369 -75t-303 -202q-126 -126 -203 -303q-76 -174 -76 -370zM426 214q2 4 6 6l396 396l-396 396q-14 14 0 38q23 45 76 98q49 49 84 62q26 10 36 0l396 -396h2l396 396q4 4 8 4 q11 4 28 -4q46 -25 95 -73q52 -51 65 -89q10 -26 0 -36l-396 -396l396 -396q6 -6 6 -16q0 -6 -4 -22q-16 -41 -70 -94q-54 -54 -92 -66q-28 -8 -36 0l-398 398l-396 -398q-10 -10 -36 0q-42 14 -96 69q-54 56 -66 91q-6 23 -4 32z" />
<glyph unicode="9" d="M0 618q0 208 81 398t218 327t327 218t398 81t398 -81t327 -218t218 -327t81 -398t-81 -398t-218 -327t-327 -218t-398 -81t-398 81t-327 218t-218 327t-81 398zM124 618q0 -182 71 -350q70 -165 192 -287t287 -192q168 -71 350 -71t350 71q165 70 287 192t192 287 q71 168 71 350t-71 350q-70 165 -192 287t-287 192q-168 71 -350 71t-350 -71q-165 -70 -287 -192t-192 -287q-71 -168 -71 -350zM200 508v172q0 2 2 2h172q4 0 4 -2v-172q0 -4 -4 -4h-172q-2 0 -2 4zM924 -40q0 2 2 2h174q2 0 2 -2v-174q0 -2 -2 -2h-174q-2 0 -2 2v174z M924 1228v174q0 2 2 2h174q2 0 2 -2v-174q0 -2 -2 -2h-174q-2 0 -2 2zM930 568q0 42 30 71q31 29 70 29q4 0 14 -2l214 592q0 2 2 2l60 -22v-2l-210 -584l416 188q2 0 2 -2l36 -78q0 -2 -2 -2l-432 -196q-1 -39 -31 -67q-29 -27 -69 -27q-39 0 -70 29q-30 29 -30 71z M1648 508v172q0 2 4 2h172q2 0 2 -2v-172q0 -4 -2 -4h-172q-4 0 -4 4z" />
<glyph unicode=":" d="M8 512l264 262l426 -426l1068 1068l262 -264l-1330 -1330z" />
<glyph unicode="A" d="M472 -322q0 27 10 44l220 490l172 418q-149 55 -244 189q-94 133 -94 299q0 216 152 368t368 152t368 -152t152 -368t-152 -368t-368 -152l-138 18l-18 -68l-214 -912q-13 -46 -62 -46h-4q-22 0 -60 12q-34 11 -56 20q-32 14 -32 56zM586 1118q0 -193 137 -332 q137 -138 333 -138t333 138q137 139 137 332t-137 332q-137 138 -333 138t-333 -138q-137 -139 -137 -332zM842 978q0 38 24 62t62 24t62 -24q26 -24 26 -62t-26 -64q-22 -22 -62 -22t-62 22q-24 26 -24 64zM942 1244q0 104 74 178q72 72 176 72q106 0 178 -72 q74 -74 74 -178q0 -108 -74 -180q-72 -72 -178 -72q-104 0 -176 72q-74 72 -74 180z" />
<glyph unicode="B" d="M240 1088q4 76 64 106q13 4 28 6h8q49 0 86 -48l434 -1270q1 -8 1 -16q0 -54 -61 -98q-16 -4 -31 -4q-56 0 -95 54l-342 1006zM484 1196q70 166 186 216q15 7 28 8q32 9 68 9q12 0 24 -1q107 -5 244 -88q8 -8 18 -14q57 -28 76 -38q107 -52 170 -52q52 5 82 10q14 4 24 6 q13 1 28 8q54 16 114 66q31 28 114 118q4 5 8.5 12t5.5 8q2 -2 2 -4q10 -13 10 -16q67 -127 98 -254v-2q24 -94 24 -192q0 -52 -8 -108q-2 -10 -2 -20q-6 -44 -22 -84q-11 -29 -28 -52q-23 -39 -44 -54q-26 -19 -42 -26q-32 -15 -178 -40q-45 -7 -88 -18q-66 -12 -124 -34 q-46 -16 -92 -40q-65 -29 -126 -68q-40 -24 -78 -54q-152 -110 -164 -208zM846 944l160 -360q30 33 182 80q119 35 154 36h6h4l-24 44l-116 196q-25 12 -92 24q-39 8 -79.5 8t-82.5 -8q-55 -7 -94 -16zM1102 1170l2 -2l110 -228h18l68 -4q47 0 108 14q69 18 88 26l-86 178 q-32 -8 -110 -14q-17 -2 -35 -2q-63 0 -137 22q-7 4 -10 4q-5 1 -16 6z" />
<glyph unicode="C" d="M158 672l226 108q7 96 40 188q-52 64 -52 148q0 91 65 159q64 67 161 67q48 0 96 -20q191 142 442 142q311 0 532 -220q222 -222 222 -534q0 -170 -66 -314l-80 28q-308 106 -630 162q-18 4 -22 4q-5 1 -14 2.5t-11 1.5q-4 0 -11 2t-10 2l-630 52l-84 8zM422 392 q0 70 12 134q3 12 9 34t7 26l614 -56q7 -1 22.5 -3.5t23.5 -4.5q286 -55 570 -152q-2 -70 -18 -138q-42 -159 -168 -286q-185 -182 -444 -182q-257 0 -444 182q-184 185 -184 446zM434 1120q0 -44 20 -82q10 -16 24 -30q46 -48 111 -48t111 48q46 46 46 112t-46 112 q-28 29 -66 40q-23 6 -46 6q-64 0 -110 -46q-44 -47 -44 -112zM532 352q0 -50 22 -84q22 -36 52 -36q32 0 52 36q22 34 22 84t-22 84q-20 36 -52 36t-52 -36q-22 -34 -22 -84zM946 352q0 -50 23 -85t53 -35t52 36q22 34 22 84t-22 84q-23 36 -52 36q-30 0 -54 -36 q-22 -34 -22 -84z" />
<glyph unicode="D" d="M254 258v712q0 162 114 276t276 114h760q164 0 276 -114q114 -114 114 -276v-712q0 -160 -114 -276q-112 -112 -276 -112h-760q-163 0 -276 112q-114 116 -114 276zM492 1020q0 -60 42 -104t98 -44q57 0 98 44q40 43 40 104t-40 104q-41 44 -98 44q-57 -1 -98 -44 q-42 -44 -42 -104zM876 634q0 -60 42 -104q38 -42 96 -42q60 0 100 42q41 47 42 104q-2 62 -42 102q-40 46 -100 46q-59 0 -96 -46q-42 -40 -42 -102zM1230 209q0 -62 40 -105q42 -44 98 -44q60 0 102 44q38 44 38 105q0 60 -38 103q-42 42 -102 42q-56 0 -98 -42 q-40 -41 -40 -103z" />
<glyph unicode="E" d="M0 258v710q0 162 114 274q112 112 272 112h754q163 0 276 -112q112 -113 112 -274v-710q0 -159 -112 -272q-113 -112 -276 -112h-754q-160 0 -272 112q-114 114 -114 272zM234 1004q0 -62 38 -106q40 -40 100 -40q56 0 96 40q40 43 40 106q0 60 -40 100q-40 46 -96 46 q-60 0 -100 -46q-38 -41 -38 -100zM258 228q0 -61 38 -104q42 -44 100 -44t100 44q40 41 40 104q0 59 -40 102q-42 42 -100 42t-100 -42q-38 -44 -38 -102zM970 1010q0 -58 42 -102q38 -44 98 -44q56 0 98 44q40 43 40 102q0 62 -40 102q-44 43 -98 44q-60 -2 -98 -44 q-42 -42 -42 -102zM988 240q0 -59 40 -102q41 -44 100 -44q56 0 98 44q40 46 40 102q-1 61 -40 104q-42 44 -98 44q-58 0 -99 -44t-41 -104zM1598 264v710q0 158 42 262q35 88 80 88q6 0 12 -2l220 -52q40 -10 68 -106q28 -90 28 -222v-560q0 -128 -28 -228 q-24 -108 -66 -126l-218 -98q-9 -4 -20 -4q-42 0 -76 78q-42 100 -42 260zM1692 258q0 -57 14 -96q10 -33 28 -33q3 0 6 1q16 7 30 52t14 100q0 53 -14 93q-7 20 -14.5 28.5t-15.5 6.5q-22 -4 -34 -50q-14 -45 -14 -102zM1808 670q0 -54 12 -94q6 -19 13 -27q6 -7 12 -7h3 q16 7 28 44q12 38 12 92q-2 50 -12 86q-12 36 -30 36q-16 0 -28 -36q-10 -39 -10 -94zM1910 1003q0 -53 10 -89q12 -38 26 -38t24 36q12 34 12 82q0 52 -12 86q-11 38 -26 38h-3q-5 0 -11 -6q-6 -8 -12 -26q-8 -34 -8 -83z" />
<glyph unicode="F" d="M0 866v7q0 128 70 223q83 114 216 114h16l670 -62q139 -7 240 -136q94 -122 94 -279v-13l-16 -642q-5 -139 -96 -230q-83 -86 -201 -86h-5l-576 30q-122 8 -218 104q-98 103 -116 240l-76 674q-2 42 -2 56zM212 822q6 -60 44 -104q36 -48 86 -50h4q45 0 74 40 q29 36 29 86q0 9 -1 18q-5 62 -40 108q-41 49 -88 50h-9q-46 0 -73 -38q-27 -40 -27 -91q0 -9 1 -19zM236 1294q-4 4 -4 7q0 9 30 17q4 0 12 2l526 128q34 5 76 14q36 4 72 4q45 0 88 -6l772 -36q-903 -711 -903 -712t907 712h2h2h2h2l2 -2h2h2h2h4h2h2l2 -2h2h2h2h2 q24 -6 28 -10q2 -11 -34 -18l-448 -146q-94 -36 -224 -36q-43 0 -90 4l-734 58q-86 5 -108 22zM298 86q6 -53 42 -94q32 -36 80 -38q42 0 72 32q24 32 24 75v13q0 54 -38 92q-31 40 -79 43h-7q-42 0 -68 -33q-26 -34 -26 -83v-7zM580 428q5 -58 38 -100q31 -41 82 -46h5 q43 0 73 36q30 38 30 89v7q-5 60 -38 102q-35 41 -80 46q-48 0 -82 -36q-28 -38 -28 -86v-12zM842 798q1 -59 38 -106q35 -45 82 -50q50 0 84 40q32 39 32 99v7q0 59 -32 106q-36 48 -86 50h-2q-50 0 -84 -40q-32 -44 -32 -106zM876 70q0 -53 31 -91q32 -40 75 -41 q48 0 78 34q30 37 30 88q0 50 -30 90q-32 43 -78 44h-5q-43 0 -73 -36q-28 -33 -28 -81v-7zM968 1376q0 -12 42 -22q42 -13 96 -14h14q49 0 84 6q44 6 44 20t-42 26q-49 9 -98 10q-14 1 -26 1q-38 0 -70 -9q-43 -5 -44 -18zM1346 36l16 670q6 171 72 320q65 150 146 180 l346 146q12 6 26 6q43 -7 72 -76q24 -70 24 -170q0 -31 -2 -66l-54 -684q-11 -111 -32 -162q-31 -75 -84 -112l-358 -264q-10 -9 -26 -16q-21 -8 -38 -8q-33 0 -56 32q-52 57 -52 185v19zM1478 78q-1 -9 0 -18q0 -39 14 -60q10 -14 23 -14q10 0 21 8q28 18 48 66 q16 48 24 102q0 52 -18 76q-16 28 -40 14q-27 -17 -50 -68q-21 -55 -22 -106zM1668 538v-13q0 -49 14 -73q8 -18 22 -18q8 0 18 6q22 12 42 60q18 48 24 102v14q0 46 -12 70q-14 32 -40 18q-25 -12 -42 -62q-21 -47 -26 -104zM1834 976q-1 -13 -1 -24q0 -40 11 -66 q10 -23 25 -23q5 0 11 3q24 7 42 58q17 46 22 102q2 19 2 36q0 33 -8 54q-11 26 -26 26q-5 0 -10 -2q-26 -12 -44 -58q-19 -49 -24 -106z" />
<glyph unicode="G" d="M122 704q0 316 222 540q223 220 534 220q317 0 538 -220q107 -112 166 -244l-354 -82q-77 -19 -82 -70v-22v-66l-238 -64q-62 -20 -60 -82l-10 -664q-284 13 -494 220q-222 222 -222 534zM318 989q0 -59 24 -101q26 -42 63 -42t65 42q24 42 24 101t-24 103q-29 44 -65 44 q-37 0 -63 -44q-24 -44 -24 -103zM710 972q0 -58 24 -100q29 -44 64 -44q37 0 66 44q26 43 26 100q0 60 -26 104q-28 42 -66 42q-36 0 -64 -42q-24 -44 -24 -104zM910 -166q0 4 2 14l2 600q-1 17 -1 33q0 69 21 107q26 50 98 62l192 50l-4 68q-1 72 52 82l266 60q14 4 26 4 q39 0 54 -46v-82l204 40q13 1 25 1q45 0 61 -19q18 -18 18 -63v-9l-24 -542q1 -11 1 -22q0 -121 -83 -158l-566 -180l-194 -62q-38 -9 -66 -9q-80 0 -84 71zM1218 268l252 -170l246 310l-98 -28v144l-304 -72v-158z" />
<glyph unicode="H" d="M172 773q18 221 144 387q54 68 124 126q197 167 442 178h28q41 0 76 -4q58 -5 104 -16q76 -17 146 -52q87 -41 150 -88q65 -49 116 -110q55 -67 98 -142q-27 19 -68 38q-95 47 -195 47q-73 0 -149 -25q-17 -5 -52 -20q-136 -66 -206 -208q-48 -97 -49 -197q0 -74 27 -149 q55 -151 184 -234q21 -15 48 -28q84 -38 172 -44q38 -2 60 -2l36 -106q-59 -47 -112 -76q-50 -28 -116 -52q-114 -40 -230 -48q-43 2 -86 6q-1 0 -29 2q-2 0 -33 4l-130 36q-34 13 -70 30q-34 15 -78 38q-96 64 -172 160q-58 65 -100 142q-83 158 -83 340q0 33 3 67z M594 588q5 -38 14 -64q14 -24 30 -36q17 -11 32 -12h4q37 0 64 38q28 40 34 96q1 12 1 23q0 45 -19 81q-6 10 -8 12q-23 35 -52 36q-19 0 -34 -4q-18 -10 -34 -34q-26 -38 -32 -98q-1 -10 -1 -19.5t1 -18.5zM982 824q56 150 204 216q62 27 132 32q13 1 26 1q69 0 140 -27 q71 -25 120 -74q62 -55 98 -132q34 -78 34 -158q0 -70 -26 -140q-31 -81 -88 -138q-5 -4 -13.5 -11.5t-12.5 -10.5q-21 -17 -32 -22l46 -146h8q7 4 14 6q50 0 96 -18q8 0 12 -4q58 -25 94 -72q4 -6 22 -40q22 -48 22 -96q0 -41 -16 -82q-35 -87 -116 -124q-48 -20 -96 -20 l-80 14q-42 19 -74 46q-31 31 -54 74q-2 5 -5 14t-5 15.5t-4 12.5q-6 26 -6 53q0 40 14 81q1 3 8 10q13 34 34 58q1 5 12 10l2 4l-66 144q0 2 -4 1q-6 -2 -10 -3q-8 -2 -10 -2q-30 -6 -48 -6q-37 0 -60 4q-43 6 -86 26q-150 56 -218 206q-33 77 -33 157q0 69 25 141z M1142 876q-2 -12 10 -28q13 -15 24 -16q16 -4 32 6q56 41 109 40q70 0 135 -70q12 -10 30 -8q14 0 28 8q14 14 12 30q0 19 -10 26q-95 100 -195 100q-78 0 -159 -60q-15 -11 -16 -28zM1166 590q-2 -22 -2 -41q0 -66 22 -101q16 -26 36 -48q4 -4 14 -10q18 -8 34 -8h7 q47 0 85 50q42 56 48 138q1 14 1 27q0 67 -25 118q-30 61 -82 65h-5.5h-4.5q-14 0 -32 -8q-27 -13 -52 -42q-38 -60 -44 -140z" />
<glyph unicode="I" d="M202 548q0 87 50 152l2 4l14 16q16 22 36 48q174 214 468 496l26 24q48 48 78 66q19 10 44 10h188h2q41 38 90 62q42 23 90 34q56 14 110 14q72 0 130 -16q96 -25 188 -110q128 -113 128 -310q0 -180 -128 -308q-68 -63 -142 -98q-54 -23 -104 -28q-33 -3 -65 -3 q-16 0 -32 1q-40 2 -59 6l-22 4l-14 -56l40 -6l-44 -44l-12 -52l80 94q90 7 166 40l-274 -250l-24 -90l344 320l-12 -190l-392 -394l-12 -60l452 458v-92l-494 -502q-19 -27 -66 -32q-8 -1 -16 -1q-26 0 -46 11q-26 7 -46 22l-466 4h-30q-86 6 -146 72l-12 14 q-54 67 -54 158q0 102 66 174q30 32 66 48v2h194h2h2h530l-32 -66h-414h-34h-112h-34q-10 0 -26 -2q-25 -5 -44 -18q-3 0 -4 -1l-2 -1q-21 -12 -32 -26q-6 -8 -14 -14q-32 -47 -32 -106q0 -57 32 -100q6 -10 14 -18q22 -24 48 -36q3 -1 7 -2.5t9 -3t8 -2.5q12 -4 24 -4h10 q-54 23 -66 38q-38 41 -38 100q0 57 38 100q1 5 8 10q10 6 18 12q17 14 40 18h48h76h2h12h10h70h356l-80 -160l-64 -128q-4 -19 20 -42l20 -18q-16 19 -8 36l48 96l154 350q138 317 144 352l2 4q1 4 -2 4l-4 2l-30 10q-4 1 -16 8q-41 25 -70 48q-24 19 -32 26l-18 18 q-118 114 -118 263v15q-2 -29 -2 -55q0 -158 80 -257h-438h-34h-112h-34q-16 0 -28 -4q-26 -5 -44 -16l-4 -2q-18 -10 -34 -28q-6 -8 -12 -14q-34 -43 -34 -104q0 -56 32 -100q5 -9 14 -18q23 -25 50 -36l14 -6q10 -4 24 -6h2h4h12l-16 2h-4q-6 2 -12 6q-2 1 -20 14 q0 2 -2 4h-2q-5 4 -10 12q-36 40 -36 100q0 58 36 100q2 2 10 8q24 24 56 30h50h74h4h12h10h70h420l24 10q58 -48 132 -78l-118 -268l-528 -8h-98l-80 -2h-14l-42 18q-40 16 -70 52q-8 8 -22 26q-46 64 -46 146zM1014 1034q6 -130 90 -228q4 -4 12 -14q6 -8 12 -12 q27 -28 60 -52q50 -33 106 -50q51 -14 106 -14h16q30 1 38 4q49 6 92 24q63 30 124 88q114 110 114 268q0 160 -114 274l-6 6q-34 32 -78 56q-82 48 -188 48q-120 0 -214 -64q-35 -26 -56 -46q-35 -35 -58 -74q-56 -89 -56 -200v-6v-8zM1098 392h2v4zM1184 878q0 35 22 57 q23 23 58 23q32 0 54 -22q26 -24 26 -58t-26 -58q-22 -22 -54 -22q-36 0 -58 22q-22 25 -22 58zM1276 1122q0 93 68 164q66 68 162 68t164 -68t68 -164t-68 -164t-164 -68t-162 68q-68 68 -68 164z" />
<glyph unicode="J" d="M540 396q28 34 65 34t83 -34v518q-2 41 38 72q36 30 76 30q52 -4 84 -30q32 -30 32 -72l14 -388q232 -22 382 -144q14 -38 30 -186q7 -69 7 -124q0 -99 -23 -152q-43 -102 -226 -144q-89 -22 -174 -22q-68 0 -132 14q-105 24 -176 102q-38 41 -56 88l14 190q1 22 1 42 q0 119 -39 206zM722 1204q0 36 26 62q24 24 60 24q32 0 56 -24q26 -26 26 -62q0 -32 -26 -56q-22 -24 -56 -24q-36 0 -60 24q-26 24 -26 56zM1016 1074q0 50 20 92q25 39 68 64q42 27 98 38q56 12 130 12v10q0 29 -16 46q-12 10 -32 18q-17 4 -50 4q-42 0 -82 -12 q-40 -10 -68 -28l-30 108q38 20 80 32q60 16 130 16q64 0 114 -18q46 -19 72 -50q27 -33 40 -76q12 -40 12 -90v-188q0 -90 6 -130h-148l-12 52h-4q-26 -32 -68 -50q-39 -16 -88 -16q-39 0 -72 14q-31 14 -56 38q-22 22 -34 52q-10 27 -10 62zM1182 1090q0 -29 20 -46 q13 -16 44 -16q30 0 58 18q22 18 30 42l4 28v60q-83 -4 -112 -18q-23 -11 -34 -26q-10 -17 -10 -42z" />
<glyph unicode="K" d="M0 398q0 426 300 726t724 300q426 0 724 -300q300 -300 300 -726q0 -190 -60 -354h-650v6v8q0 138 -92 242l480 678q13 23 13 39.5t-13 26.5q-12 9 -24 9q-20 0 -42 -25l-548 -632q-69 27 -140 28q-153 0 -260 -106q-106 -109 -106 -260v-8v-6h-544q-62 165 -62 354z M734 44v6q0 100 72 172t172 72q41 0 74 -10q32 -11 60 -28q38 -32 40 -34q5 -8 14 -14q58 -67 58 -158v-6q-2 -98 -72 -168q-72 -72 -174 -72q-100 0 -172 72q-70 70 -72 168z" />
<glyph unicode="L" d="M0 1168q0 18 2 58h1078q2 -38 2 -58q0 -224 -158 -382q-40 -40 -82 -70l94 -104l-222 42q-78 -28 -174 -28q-223 0 -380 160q-160 157 -160 382zM976 538q0 10 2 34q0 10 2 32q20 183 150 316q158 156 381 156t381 -156q156 -156 156 -382q0 -222 -156 -378 q-158 -156 -381 -156t-381 156q-26 28 -38 42q1 0 3 1t3 1q200 53 218 198h-322h-2q-16 63 -16 136z" />
<glyph unicode="M" d="M198 606q0 85 40 150q19 32 46 58q62 62 142 82q49 81 116 146q198 192 477 192t477 -192q69 -69 116 -144q85 -17 152 -82q86 -89 86 -209t-86 -209q-54 -55 -122 -74q-28 -8 -54 -12q2 6 5 17.5t5 16.5q36 136 36 268q0 68 -10 136q-42 147 -162 262q-185 176 -442 176 q-258 0 -440 -176q-97 -96 -144 -212q-20 -100 -20 -199q0 -147 44 -289q-38 5 -66 16q-59 19 -110 70q-30 34 -46 58q-40 67 -40 150zM462 550q0 232 162 394q167 164 396 164q228 0 392 -164q162 -164 164 -394q0 -228 -164 -392t-394 -164t-394 164q-162 162 -162 392z M684 396q60 -202 338 -216h5q268 0 323 216h-666z" />
<glyph unicode="N" d="M404 560l596 -284l644 270l-188 -380l-444 -172l-440 194zM528 740q0 140 68 250q29 50 76 100q85 83 190 120q77 24 160 24q202 0 348 -144q144 -144 144 -350q0 -126 -56 -230l-458 -184l-420 192l-1 2q-2 2 -3 2q-48 100 -48 218zM798 556q0 -37 17 -66q16 -28 41 -28 q24 0 42 28q16 28 16 66t-16 66q-18 28 -42 28t-42 -28q-16 -28 -16 -66zM1120 560q0 -38 16 -66t41 -28q26 0 42 28q17 29 17 66q0 38 -18 68q-17 26 -41 26t-41 -26q-16 -28 -16 -68z" />
<glyph unicode="O" d="M142 217q0 59 42 103q28 23 58 34l-60 114l86 36l80 -158q22 -12 38 -28q42 -42 42 -102q0 -6 -2 -24l74 -146l-114 28l-16 28q-39 -27 -84 -28h-5q-55 0 -97 42t-42 101zM296 40h928q209 106 220 324q414 -162 462 -370l-1590 4zM316 662q0 238 168 405q169 167 404 167 q236 0 403 -167t167 -405q0 -236 -167 -403t-403 -167q-235 0 -404 167q-168 167 -168 403zM478 428q0 -46 18 -76q19 -34 49 -34q29 0 47 34q20 31 20 76t-19 76q-20 32 -48 32q-29 0 -49 -32q-18 -32 -18 -76zM850 432q0 -45 19 -76q20 -32 47 -32q28 0 48 32t20 76 q0 45 -20 76q-19 34 -48 34t-48 -34q-18 -30 -18 -76z" />
<glyph unicode="P" d="M124 268v190q0 90 64 154q62 62 152 62h476q87 0 152 -62q64 -64 64 -154v-190q0 -38 -12 -70q-16 -46 -52 -82q-64 -66 -152 -66h-476q-90 0 -152 66q-64 61 -64 152zM498 732v106q0 139 98 240q100 100 242 100h746q142 0 242 -100q98 -101 98 -240v-300 q0 -139 -98 -240q-100 -100 -242 -100h-476q6 24 6 52v224q0 106 -76 182q-73 76 -180 76h-360z" />
<glyph unicode="Q" d="M464 16q0 259 164 446q164 182 394 182q234 0 398 -182q164 -187 164 -446q0 -81 -16 -152h-1090q-14 76 -14 152zM684 1030q0 138 98 236q101 98 238 98q140 0 236 -98q100 -97 100 -236q0 -141 -100 -238q-96 -98 -236 -98q-137 0 -238 98q-98 98 -98 238z" />
<glyph unicode="R" d="M268 254l272 328h448l24 42l140 232q23 37 68 54q21 8 39 8q25 0 47 -14q44 -23 54 -64q4 -14 4 -28q0 -25 -12 -50l-100 -186l-20 -42l-74 -140h-562l-172 -230q-47 -54 -110 -54q-17 0 -34 4q-36 26 -36 66q0 33 24 74zM592 342h164h100v-28q0 -104 72 -180 q77 -74 180 -74q106 0 180 74q72 76 72 180t-72 178l-3 2q-3 2 -3 4l18 36l110 200l182 336q28 48 66 66q19 10 40 10q25 0 52 -15q47 -27 52 -71v-10q0 -38 -24 -94l-226 -452q22 -70 22 -150q0 -204 -144 -346q-142 -144 -347 -144t-349 144q-137 139 -142 334zM1116 1172 q0 81 58 136q54 56 134 56t134 -56q58 -55 58 -136q0 -76 -58 -134q-54 -54 -134 -54t-134 54q-58 58 -58 134z" />
<glyph unicode="S" d="M316 682q6 376 180 660q12 16 26 18h5q11 0 19 -8q15 -13 16 -30q2 -17 -4 -34q-164 -260 -170 -606q0 -18 -1 -36q0 -409 219 -710q8 -18 8 -32q-2 -20 -12 -32t-26 -12q-14 0 -24 16q-237 328 -237 764q0 21 1 42zM570 640q6 231 100 410q6 15 18 16q13 2 22 -2 q9 -9 14 -24q2 -15 -4 -28q-89 -167 -90 -374q-1 -19 0 -38q0 -241 118 -430q8 -12 6 -26q-4 -14 -12 -24q-10 -10 -22 -8t-20 14q-130 214 -130 490v24zM812 606q0 306 130 562q30 78 94 78q18 0 40 -6q53 -18 124 -76l312 -288q19 -23 19 -47q0 -12 -5 -25 q-46 -91 -46 -204q-2 -20 -2 -39q0 -87 44 -161q12 -14 12 -30q0 -21 -22 -42l-322 -298q-56 -42 -100 -56q-22 -6 -40 -6q-58 0 -96 56q-142 265 -142 582zM1546 592v11q0 75 26 125q27 52 59 52h5q36 -2 62 -58q22 -53 22 -130q0 -75 -22 -128q-26 -56 -62 -59h-4 q-34 0 -60 51q-26 49 -26 125v11z" />
<glyph unicode="T" d="M600 1026v236q60 45 124 68q89 33 203 33q23 0 47 -1q134 -6 230 -50q73 -32 134 -96q60 -60 84 -124q26 -63 26 -144q0 -94 -30 -168q-32 -72 -84 -126q-48 -53 -116 -102q-64 -46 -138 -90v-252h-264v346q16 10 48 29.5t40 24.5q61 40 104 78q47 47 72 100 q28 53 28 122q0 100 -64 148q-41 32 -96 44h-8q-8 2 -10 2t-10 2q-24 2 -40 2q-81 0 -156 -26q-2 -1 -5.5 -2.5t-4.5 -1.5l-8 -2q-10 -6 -21 -9q-12 -3 -23 -9q-39 -19 -62 -32zM816 130h262v-266h-262v266z" />
<glyph unicode="U" d="M734 24h150v728h-134v118h430v-846h134v-160h-580v160zM804 1166q0 83 58 138q58 60 140 60t140 -60q58 -55 58 -138q0 -82 -58 -140t-140 -58t-140 58t-58 140z" />
<glyph unicode="V" d="M394 1050q0 244 172 416t416 172q245 0 417 -172q173 -173 173 -418q0 -167 -89 -309q-88 -141 -235 -215l6 -12l88 -198h-2q-2 2 -2 0q-29 4 -62 -10h-2q-2 0 -2 -2q-33 -11 -52 -30l-2 2l-60 198l-6 14q-86 -26 -170 -26q-243 0 -416 173q-172 172 -172 417zM468 1049 q0 -214 152 -366q151 -151 366 -151t366 151q152 152 152 366q0 215 -152 367t-366 152t-366 -152t-152 -367zM536 1050q0 184 131 315t315 131q32 0 72 -6q-50 -18 -82 -62t-32 -100q0 -69 50 -121q50 -51 120 -51t121 51t51 121q0 32 -12 62q74 -62 116 -151t42 -189 q0 -185 -131 -316q-130 -130 -315 -130q-184 0 -315 131t-131 315zM1094 1002q0 -38 28 -66t66 -28t66 28t28 67t-28 66t-67 27t-66 -28t-27 -66zM1202 184v8q-2 17 20 38q22 20 64 38q3 3 6 4q44 12 80 12h6h2q28 -4 38 -16q4 -4 4 -6v-4l232 -478l-56 6h-10 q-56 0 -108 -20l-4 -2q-65 -23 -104 -56q-30 -30 -30 -58q0 -4 2 -12h-4l-4 12zM1390 -380q-2 5 -2 11q0 9 6 19q7 14 22 26q31 28 82 48h2q43 17 84 17q8 0 16 -1q33 -1 46 -22l2 -10q2 -5 2 -11q0 -17 -22 -39l-4 -2l-2 -2l-2 -4q-32 -25 -80 -44q-49 -16 -87 -16h-9 q-39 5 -52 22z" />
<glyph unicode="W" d="M0 594v20q0 119 82 201q83 83 201 83t201 -83q82 -82 82 -201v-20q2 -2 2 -8q-10 -100 -84 -174q-82 -82 -200 -82q-118 1 -202 82q-74 74 -80 174q-2 6 -2 8zM752 594v20q0 118 83 201t201 83t201 -83t83 -201v-20v-8q-11 -98 -82 -174q-83 -82 -202 -82q-118 0 -200 82 q-75 75 -82 174q-2 6 -2 8zM1480 594v20q0 118 83 201t201 83t201 -83t83 -201v-20v-8q-7 -96 -82 -174q-82 -82 -201 -82t-201 82q-75 75 -82 174q-2 6 -2 8z" />
<glyph unicode="X" d="M404 -120v1468q0 9 11 14q5 2 9 2q6 0 10 -4l1196 -714q12 -14 12 -32t-12 -32l-1196 -714q-5 -4 -10 -4q-4 0 -9 2q-11 5 -11 14z" />
<glyph unicode="Y" d="M342 -132v1488q0 4 6 4h454q4 0 4 -4v-1488q0 -4 -4 -4h-454q-6 0 -6 4zM1242 -132v1492q0 4 4 4h454q6 0 6 -4v-1492q0 -4 -6 -4h-454q-4 0 -4 4z" />
<glyph unicode="Z" d="M336 -56l670 670l-670 670l352 354l1024 -1024l-1024 -1024z" />
<glyph unicode="a" d="M10 788q-1 8 -1 16q0 88 119 176l598 376q148 106 289 106t275 -106l648 -418q97 -58 97 -141q0 -6 -1 -13q-5 -39 -30 -64q-27 -27 -66 -28h-172v-792q0 -136 -136 -136h-1208q-134 0 -134 136v792h-160q-51 2 -82 30q-15 11 -25 29q-9 17 -11 37zM792 28 q0 -136 136 -136h166q134 0 134 136v218q0 136 -134 136h-166q-136 0 -136 -136v-218z" />
<glyph unicode="b" d="M34 704v6q0 47 16 62q14 14 40 6q36 -12 100 -32q117 -37 209 -66q44 -14 94.5 -30t56.5 -18q83 -25 170 -52q26 -6 97 -26q80 -22 97 -28q53 -15 78 -22q117 -35 118 -206l2 -620q0 -42 -14 -62q-13 -18 -39 -18h-5q-7 1 -16 2.5t-10 1.5l-644 190q-81 25 -116 134 l-212 674q-21 63 -22 104zM306 75v-6q0 -10 5 -17q8 -11 19 -12l576 -96q14 -2 24 6q10 7 12 20t-5 22q-7 10 -21 12l-576 96q-13 2 -22 -5q-11 -8 -12 -20zM308 234v-6q0 -9 5 -16q8 -11 19 -12l576 -96q15 -2 24 5q11 8 12 20q2 14 -5 23q-7 10 -21 12l-576 96 q-12 1 -22 -6t-12 -20zM580 1092q0 222 157 379t379 157t379 -157t157 -379t-157 -379t-379 -157t-379 157t-157 379zM934 1184q0 -41 20 -72q16 -30 42 -30t44 30q18 32 18 72q0 42 -18 68q-18 32 -44 32q-25 0 -42 -32q-20 -26 -20 -68zM976 922l1 -3q1 -1 1.5 -4t0.5 -4 q1 -3 1 -7q16 -48 46 -76q6 -8 12 -12q53 -44 122 -44q67 0 122 44q1 3 7 9l7 7q40 40 48 90h-368zM1180 -292l8 546q1 228 124 270l624 226q18 6 32 6q46 0 46 -82q0 -6 -1.5 -18.5t-2.5 -19.5q-6 -48 -14 -82l-138 -578q-34 -148 -122 -184l-466 -186q-12 -4 -22 -6 q-8 -2 -15 -2q-24 0 -36 21q-17 28 -17 89zM1234 1184q0 -41 16 -72q18 -30 44 -30t42 30q20 31 20 72q0 42 -20 68q-17 32 -42 32q-26 0 -44 -32q-16 -25 -16 -68zM1305 98q3 -12 15 -18q8 -4 18 -4h6l488 144q12 4 18 15q4 7 4 15q0 4 -1 8q-3 12 -15 18q-8 4 -16 4h-6 l-490 -144q-12 -4 -18 -15q-4 -7 -4 -15q0 -4 1 -8z" />
<glyph unicode="c" d="M64 1506q20 118 150 126l722 -78q118 -27 117 -124q0 -12 -1 -24q-1 -4 -3.5 -17t-4.5 -19q-32 -161 -32 -320q0 -253 80 -502q11 -35 16 -50l-850 220q0 1 -2 4t-5.5 9.5t-6.5 12.5q-185 373 -185 670q0 47 5 92zM70 626v9q0 49 40 49h4h2h2q12 2 22 -2l830 -234 q109 -30 110 -192l2 -582q0 -40 -14 -59q-12 -17 -35 -17h-5q-15 0 -24 4l-604 176q-81 26 -112 126l-198 632q-14 42 -18 72q-2 14 -2 18zM1148 -300l6 514q1 213 118 254l586 212q18 6 30 6q42 0 42 -71v-7v-4q-1 -4 -1.5 -12.5t-0.5 -17.5q-6 -44 -14 -78l-130 -542 q-31 -139 -116 -174l-438 -176q-8 -2 -18 -6q-7 -1 -12 -1q-52 0 -52 88v15zM1192 1456l332 -24q72 -17 72 -60q0 -34 -44 -84q-15 -15 -20 -22q-283 -325 -284 -659q0 -36 4 -73l-50 12q-68 224 -68 461q0 219 58 449zM1326 556q24 353 356 672q2 2 7.5 7t9.5 9t9.5 9 t7.5 7l244 -88q26 -25 26 -47q0 -30 -50 -55l-12 -6q-41 -20 -76 -42q-199 -128 -304 -230q-130 -124 -176 -248z" />
<glyph unicode="d" d="M100 1124q5 63 14 104q6 27 20 66q4 10 10 20q38 86 108 158q11 9 26 24q46 39 82 62l28 16q83 44 176 54q31 4 63 4h21h16q56 -5 70 -8q178 -30 302 -172l8 -8q31 -35 52 -68q56 -90 72 -192q5 -40 5 -80q0 -20 -1 -40v-12q-2 -6 -3 -19q-1 -9 -1 -17q-12 -97 -58 -180 q-48 -81 -116 -144q-155 -136 -360 -136h-6q-10 0 -24 2q-62 5 -108 16q-115 30 -206 108q-32 25 -56 54q-38 43 -68 96q-2 2 -2 4q-33 57 -50 126q-8 37 -12 70q-3 25 -3 58q0 16 1 34zM856 99q0 209 148 356q149 147 356 147q208 0 355 -147t147 -356t-147 -356t-355 -147 q-207 0 -356 147q-148 147 -148 356zM1072 318q0 -39 17 -67q17 -27 42 -27q26 0 42 28q17 29 17 67t-17 66q-17 27 -42 27t-42 -27q-17 -28 -17 -67zM1284 1067q6 95 76 159l16 12q0 3 4 4q54 40 120 42h14h14h2q95 -6 156 -76q59 -64 58 -150v-16q-1 -38 -14 -74 q-8 -20 -20 -40q-18 -25 -38 -42l-4 -4q-27 -23 -60 -40q-41 -19 -88 -19q-9 0 -18 1q-16 2 -22 2q-40 6 -72 24q-24 11 -40 26q-15 12 -26 24q-59 66 -59 151q0 8 1 16zM1386 318q0 -39 17 -67q17 -27 42 -27q26 0 42 28q17 29 17 67t-17 66q-17 27 -42 27t-42 -27 q-17 -28 -17 -67zM1744 744q4 44 36 72l2 2q5 3 18 14q20 10 44 10h8q43 -1 72 -34q25 -27 25 -62q0 -6 -1 -12q0 -42 -32 -72q-28 -26 -70 -26h-6q-42 4 -70 34q-18 22 -24 48q-2 18 -2 26zM1840 513q11 11 29 11h5q19 -1 32 -16q12 -13 12 -32q-5 -21 -16 -32 q-13 -13 -30 -13h-3q-19 1 -32 16q-12 14 -12 31q0 20 15 35z" />
<glyph unicode="e" d="M108 36v1376q0 220 220 220h1220q190 0 214 -164q4 -25 4 -56v-1376q0 -220 -218 -220h-1220q-24 0 -44 4q-176 20 -176 216zM254 1232q0 -126 126 -126h220q126 0 126 126v132q0 126 -126 126h-220q-126 0 -126 -126v-132zM264 160q0 -128 128 -128h218q126 0 126 128 v130q0 126 -126 126h-218q-128 0 -128 -126v-130zM264 698q0 -126 128 -126h218q126 0 126 126v132q0 126 -126 126h-218q-128 0 -128 -126v-132zM324 -216q30 -2 44 -2h1220q218 0 218 220v1374q0 33 -4 56q176 -20 176 -216v-1376q0 -220 -220 -220h-1218q-192 0 -216 164 zM370 1289q0 51 36 87q38 38 88 38q52 0 88 -38t36 -88t-36 -86q-36 -38 -87 -38t-89 38q-36 36 -36 87zM884 126q0 -30 21 -51t51 -21h570q28 0 50 21t22 51v2q0 30 -22 51t-50 21h-570q-30 0 -51 -21t-21 -51v-2zM884 650q0 -30 21 -51t51 -21h570q28 0 50 21t22 51v2 q0 30 -22 51t-50 21h-570q-30 0 -51 -21t-21 -51v-2zM884 1196q0 -28 21 -50t51 -22h570q28 0 50 21t22 51v2q0 30 -22 51t-50 21h-570q-30 0 -51 -21t-21 -51v-2z" />
<glyph unicode="f" d="M202 1120q0 212 242 362q240 150 580 150t581 -150t241 -362t-240 -362q-134 -82 -290 -118l-196 -186l42 162q-70 -8 -138 -8q-340 0 -580 150q-242 150 -242 362zM288 81q0 195 139 333t334 138t333 -138t138 -333t-138 -334t-333 -139t-334 139t-139 334zM602 159 q0 -38 16 -63q17 -26 38 -26t38 26q16 25 16 63t-16 64q-16 27 -38 27t-38 -27q-16 -26 -16 -64zM636 -82q7 -51 54 -89q46 -37 108 -37q63 0 109 37q48 39 55 89h-326zM880 159q0 -38 16 -63q17 -26 38 -26t38 26q16 25 16 63t-16 64q-16 27 -38 27t-38 -27 q-16 -26 -16 -64z" />
<glyph unicode="g" d="M10 1234q-2 18 12 18q2 -8 8 -16q87 -116 285 -116q52 0 111 8q30 4 54 -26q24 -26 24 -68l80 -1108l-2 -12q-5 -54 -68 -72q-222 6 -312 142q-12 16 -22 38l-6 16q-5 10 -10 28v4v6l-4 18l-2 18l-146 1114zM120 1296v8q5 20 40 32l888 200l366 -58l-852 -258 q-92 -26 -199 -26h-15q-100 4 -148 24q-58 25 -76 60q-4 9 -4 18zM146 902q5 -62 34 -102q26 -38 56 -38h6q36 6 56 50q15 36 15 79q0 13 -1 27q-6 64 -34 104q-27 38 -61 38h-3q-35 -5 -54 -50q-15 -36 -15 -81q0 -13 1 -27zM576 1024q-2 7 -2 12q0 14 12 14q1 -1 4.5 -6 t5.5 -8q78 -113 278 -113q48 0 104 7q28 6 50 -24q18 -24 18 -59v-7v-708v-356v-12q-10 -52 -74 -68q-220 6 -298 136q-12 17 -18 38l-6 14l-8 28v4l-2 4v18v18v2zM680 692q0 -62 24 -106q26 -44 62 -44q34 0 56 46q24 41 24 97v9q-2 62 -26 106q-23 42 -57 42h-3 q-34 0 -58 -44q-22 -40 -22 -96v-10zM688 1116q-9 13 -9 24q0 23 37 38l844 266l434 -88l-506 -180l-130 -44l-58 -20l-160 -56q-87 -28 -190 -28h-22q-100 1 -154 26q-63 29 -86 62zM1124 -134v354v572q0 69 22 116q24 52 70 70l722 280q47 -7 70 -36t28 -94l-86 -752 q-2 -38 -6 -80q-11 -84 -32 -128q-35 -63 -116 -92l-596 -286q-14 -2 -18 -2h-4q-34 0 -46 32q-8 15 -8 37v9z" />
<glyph unicode="h" d="M144 828q-3 37 -3 61t3 35q10 28 44 6l36 -34l34 -34l72 -70l68 -70l58 -58l40 -38v-4l96 -108l14 -14q26 -31 38 -86q7 -40 8 -76q5 -47 6 -106l2 -76l16 -480q1 -15 1 -26q0 -50 -20 -50h-1q-14 0 -42 24l-346 396q-55 72 -60 224zM274 1236q27 38 64 80l166 -204 q-22 -22 -46 -52zM446 828q17 88 56 162q23 45 58 86q16 20 48 56q7 5 20 18q19 17 48 40q57 43 120 68q31 15 74 26q56 16 120 18q26 2 36 2q8 0 34 -2q72 -5 136 -22q36 -12 64 -24q50 -21 98 -54q31 -23 42 -32q20 -16 42 -38q28 -28 52 -58q32 -48 34 -50 q31 -49 54 -110q9 -25 16 -54q4 -20 12 -62l-818 -186q-17 -2 -33 -2q-77 0 -129 40zM632 1576q49 34 104 54l84 -286q-56 -23 -76 -32zM736 254q-2 28 -2 53q0 56 12 93q5 19 10 30q30 62 114 80l30 8l96 26l588 138l226 54h10q70 0 92 -28q5 -5 6 -10q8 -19 8 -52 q0 -16 -2 -36l-84 -546q0 -76 -36 -128q-31 -47 -86 -70l-808 -250q-30 -6 -70 -6q-84 0 -84 77v11l-16 412zM1208 1332l102 296q22 -6 48 -12q15 -5 58 -18l-136 -286q-22 6 -42 12q-7 1 -30 8zM1556 1092l258 168q12 -17 44 -70l-268 -146q-3 4 -34 48z" />
<glyph unicode="i" d="M82 1150q-1 11 2.5 16t11.5 4q2 -2 10 -16q90 -134 319 -134q55 0 119 8q5 1 10 1q28 0 48 -29q22 -31 22 -80v-1218l-2 -16q-11 -56 -82 -72q-239 18 -328 162q-13 21 -20 42l-6 18q-5 10 -10 30v4v6l-2 20l-2 18l-88 1228zM162 1244q-12 17 -12 30q0 24 38 40l1086 308 l476 -78l-1076 -368q-100 -32 -214 -32h-26q-110 1 -172 28q-70 31 -100 72zM720 -278v1184q2 80 30 134q31 57 94 80l966 338q126 -12 150 -158l-30 -910q1 -28 1 -54t-1 -50q-5 -114 -34 -174q-34 -69 -126 -110q-31 -11 -40 -14l-618 -262l-176 -74l-100 -42 q-18 -2 -26 -2q-58 0 -78 48q-12 26 -12 66zM952 -224l260 100l76 432q43 64 88 84q18 7 36 7l76 -33l60 -342v-10l230 90l-254 892q-24 96 -96 96q-18 0 -38 -6q-24 -6 -50 -22q-61 -43 -84 -148zM1306 624q5 45 34 76l8 8q25 22 56 22q36 0 58 -30q17 -24 18 -57 q0 -9 -2 -19q-6 -43 -35 -75q-28 -31 -63 -31q-25 0 -42 14q-10 7 -16 18q-17 24 -17 56q0 9 1 18zM1668 1094q-1 -10 -1 -20q0 -59 21 -104q23 -50 58 -50q34 0 60 51t30 123v11q0 66 -22 113q-24 52 -58 52q-36 0 -60 -52q-27 -55 -28 -124z" />
<glyph unicode="j" d="M26 32v202q0 130 130 130h102v134q0 16 12 28l2 2l2 2q12 12 30 12h658v160h-446q-79 5 -80 80v620q5 79 80 80h966q80 0 80 -80v-618q0 -82 -80 -82h-428v-160h684q18 0 30 -12l2 -2h2q10 -11 10 -30v-148h110q130 0 130 -130v-200q0 -130 -130 -130h-322 q-128 0 -128 130v200q0 130 128 130h130v108h-646v-12v-220h118q130 0 130 -130v-200q0 -130 -130 -130h-322q-128 0 -128 130v200q0 130 128 130h108v220q0 6 2 12h-618v-94h134q130 0 130 -130v-202q0 -128 -130 -128h-320q-130 0 -130 128z" />
<glyph unicode="k" d="M88 14v1386q0 222 222 222h568v-448h-30h-94q-92 -2 -102 -102q-1 -13 -1 -26q0 -82 61 -144l296 -296q72 -71 143.5 -71t142.5 71l296 296q74 72 74 145q0 17 -4 35q-20 91 -120 92h-100v448h100q191 0 216 -166q4 -23 4 -56v-1386q0 -222 -220 -222h-1230q-14 0 -44 2 q-178 22 -178 220zM292 -228q30 -2 46 -2h1228q220 0 220 220v1386h2q0 32 -6 56q178 -19 178 -218v-1386q0 -222 -220 -222h-1230q-193 0 -218 166z" />
<glyph unicode="l" d="M254 -284v1816q0 41 31 66q32 26 73 26h868q146 0 242 -96l222 -220q104 -102 104 -236v-1356q0 -40 -33 -72q-34 -32 -75 -32h-1328q-42 0 -73 31t-31 73zM400 50q0 -46 33 -80t79 -34h1024q46 0 79 34t33 80q0 48 -33 81t-79 33h-1024q-46 0 -79 -33t-33 -81zM400 456 q0 -46 33 -80t79 -34h1024q46 0 79 34q33 35 33 80q0 48 -33 81t-79 33h-1024q-46 0 -79 -33t-33 -81zM400 862q0 -48 33 -81t79 -33h406q46 0 80 33t34 81q0 46 -33 79t-81 33h-406q-46 0 -79 -33t-33 -79zM1536 342z" />
<glyph unicode="m" d="M14 596q0 249 115 464q116 216 314 352q199 136 443 166q-4 -20 -4 -44v-826q0 -46 18 -90q18 -42 50 -74q37 -33 74 -50q44 -18 90 -18h826q24 0 44 4q-30 -244 -166 -443q-136 -198 -352 -314q-215 -115 -464 -115q-202 0 -385 78t-315 210t-210 315t-78 385zM1052 708 v826q0 26 12 48q28 46 82 46h10q347 -36 595 -284q247 -247 283 -594q1 -6 1 -12q0 -52 -47 -80q-22 -12 -48 -12h-826q-26 0 -44 18t-18 44zM1114 646z" />
<glyph unicode="n" d="M36 8v1212q0 68 49 117t119 49h1210q70 0 119 -49t49 -117v-90l12 14l272 -236l-284 -326v-574q0 -69 -49 -118q-50 -50 -119 -50h-1210q-69 0 -119 50q-49 49 -49 118zM162 -16h1294v452l-182 -210l-272 234l454 522v58h-1294v-1056zM888 78l84 346l270 -234l-340 -124z M888 78zM1624 1178l112 130q13 15 32 15h5q25 -2 43 -17l180 -156q17 -16 22 -39q1 -5 1 -10q0 -16 -11 -27l-112 -132z" />
<glyph unicode="o" d="M16 618q0 187 73 355q73 169 195 292q120 121 292 196q168 73 356 73q333 0 586 -214q254 -215 314 -536l52 66q23 26 57 29h8q31 0 53 -19q26 -23 29 -56v-8q0 -28 -17 -50l-196 -248q-19 -25 -58 -30q-8 -1 -15 -1q-27 0 -47 17l-250 196q-27 20 -31 54q-5 34 15 60 q20 30 55 35q7 1 13 1q28 0 48 -18l80 -64q-48 249 -244 413q-196 165 -452 165q-192 0 -356 -95q-165 -95 -259 -258q-95 -164 -95 -355q0 -192 95 -356t259 -259t356 -95q175 0 332 83q155 82 256 231q24 34 65 42q10 2 20 2q30 0 57 -18q35 -24 43 -65q2 -11 2 -21 q0 -29 -17 -56q-127 -190 -329 -297t-429 -107q-188 0 -356 73q-171 74 -292 195t-195 292q-73 168 -73 356zM736 466v454q0 49 32 86q32 36 80 38h6q47 0 80 -32q36 -34 36 -86v-234q0 -42 30 -71q31 -29 72 -29h88q52 0 87 -36q33 -35 33 -85t-38 -84q-36 -33 -86 -33 h-306q-52 0 -82 32q-32 32 -32 80zM2002 860z" />
<glyph unicode="p" d="M470 639q0 20 10 37l2 2q6 8 8 10l266 264q1 3 8 8q6 6 16 6q3 0 11 -11q7 -10 7 -15v-148h712q28 0 44 -18q16 -17 16 -48v-172q0 -32 -17 -55t-43 -23h-712v-138q0 -4 -6 -18t-12 -14q-4 0 -24 20l-266 266q-2 2 -8 10l-2 2q-10 16 -10 35zM482 1202v174q0 30 15 51 t41 21h718v142v24q0 2 6 2h2h6h2h2q3 -3 6 -4q2 0 4 -2l8 -8l266 -266q2 -2 8 -10l2 -2q4 -7 4 -10q2 0 2 -2q2 -10 2 -16q2 -2 2 -3v-2v-3q0 -2 -2 -12q0 -4 -2 -12l-1 -1l-1 -1q0 -5 -4 -10l-2 -2q-6 -8 -8 -10l-266 -264q0 -2 -8 -8q-4 -4 -8 -4q-4 -4 -12 -4l-8 2v26 v148h-718q-26 0 -41 18t-15 48zM912 -270v716h230v-716q0 -53 -32 -90q-32 -36 -83 -36t-83 36q-32 37 -32 90zM912 820v284h230v-284h-230zM912 1480v26q0 53 32 90q32 36 83 36t83 -36q32 -37 32 -90v-26h-230z" />
<glyph unicode="q" d="M20 140q0 44 26 58q10 5 23 5q18 0 41 -13l244 -154q37 -23 37 -57q0 -31 -37 -55l-244 -152q-23 -15 -42 -15q-12 0 -22 6q-26 15 -26 59v318zM20 458v264q0 45 28 61q13 7 28 7q18 0 40 -10l232 -116q42 -20 42 -53q0 -28 -36 -51l-244 -152q-23 -15 -42 -15 q-12 0 -22 6q-26 15 -26 59zM20 1092v318q0 44 26 59q10 6 22 6q19 0 42 -15l244 -152q37 -25 37 -59q0 -31 -37 -53l-244 -154q-23 -13 -41 -13q-13 0 -23 5q-26 14 -26 58zM550 34q0 44 31 75t75 31h1270q44 0 75 -31t31 -75v-106q0 -44 -31 -75t-75 -31h-1270 q-44 0 -75 31t-31 75v106zM550 564v104q0 44 31 75t75 31h1270q44 0 75 -31t31 -75v-104q0 -44 -31 -75t-75 -31h-1270q-44 0 -75 31t-31 75zM550 1198v106q0 44 31 75t75 31h1270q44 0 75 -31t31 -75v-106q0 -44 -31 -75t-75 -31h-1270q-44 0 -75 31t-31 75z" />
<glyph unicode="r" d="M12 -290v1062q0 18 13 31t33 13h488q18 0 31 -13q14 -14 15 -31v-1062q0 -19 -14 -33q-13 -13 -32 -13h-488q-20 0 -33 13t-13 33zM150 324v356h304v-356h-304zM150 324h304v356h-304v-356zM730 -290v1336q0 20 13 33t31 13h488q20 0 33 -13t13 -33v-1336q0 -20 -13 -33 t-33 -13h-488q-18 0 -31 13t-13 33zM866 240v714h304v-714h-304zM866 240h304v714h-304v-714zM1454 -290v1818q0 19 14 33q13 13 32 13h488q20 0 33 -13t13 -33v-1818q0 -20 -13 -33t-33 -13h-488q-19 0 -32 13q-14 14 -14 33zM1592 552v884h304v-884h-304zM1592 552h304 v884h-304v-884z" />
<glyph unicode="s" d="M66 76v1460q0 40 28 68t66 28h1342q40 0 67 -28t27 -68v-444q-1 0 -3.5 0.5t-6 1t-7.5 0.5q-18 2 -21 2q-35 0 -78 -8v332q0 40 -28 68t-66 28h-1110q-38 0 -66 -28t-28 -68v-1228q0 -40 28 -68t66 -28h752v-116h-868q-38 0 -66 28t-28 68zM348 364v122h830 q29 -55 60 -92q-34 -7 -70 -30h-820zM348 744v122h834q-31 -60 -42 -122h-792zM348 1126v122h966v-122h-966zM1138 114q0 76 48 131t116 55h510q70 0 118 -55q48 -56 48 -131v-436q0 -30 -23 -53t-53 -23h-688q-31 0 -54 23q-22 22 -22 55v434zM1240 670q0 132 93 225 t225 93t225 -93t93 -225t-93 -225t-225 -93t-225 93t-93 225zM1812 300z" />
<glyph unicode="t" d="M16 782q0 184 112 341q111 156 306 248q192 91 423 91q230 0 422 -91q195 -92 306 -248q113 -158 113 -341t-113 -341q-111 -156 -306 -248q-192 -91 -423 -91q-61 0 -130 8q-124 -124 -269 -169q-144 -44 -329 -49v44q87 43 145 116q57 72 57 154q0 16 -2 46 q-147 97 -229 234q-83 139 -83 296zM860 -32q187 1 364 61q172 58 312 169q137 112 214 258q80 157 80 326q0 16 -2 54q97 -79 152 -184q54 -104 54 -220q0 -136 -72 -254q-71 -117 -198 -200q-4 -20 -4 -40q0 -73 44 -135q42 -60 118 -97v-38q-156 4 -276 42t-228 144 q-56 -6 -112 -6q-248 0 -446 120zM1760 -62z" />
<glyph unicode="u" d="M12 426v366q0 38 27 65t65 27h268l502 414q27 23 57 23q20 0 40 -10q53 -26 53 -83v-1240q0 -58 -52 -82q-21 -8 -40 -8q-32 0 -58 20l-502 416h-268q-38 0 -65 27t-27 65zM1250 1007q2 35 26 61l12 12q27 26 65 26h5q40 -1 66 -34q166 -202 166 -464q0 -243 -146 -440 q-25 -31 -68 -36h-6q-38 0 -66 28l-12 12q-25 25 -26 58v6q0 30 18 54q104 143 104 318q0 191 -118 336q-20 25 -20 57v6zM1590 1382l12 12q26 26 63 26h5q40 0 66 -30q145 -163 221 -364q77 -204 77 -418q0 -208 -72 -404q-71 -194 -206 -356q-26 -31 -66 -32h-4 q-38 0 -66 28l-12 12q-25 25 -26 60v5q0 33 22 59q111 134 169 294q59 163 59 334q0 180 -63 347q-64 169 -181 301q-23 28 -23 61q0 38 25 65zM1756 -152z" />
<glyph unicode="v" d="M12 534v168q0 68 68 68h740v776q0 32 35 59t71 27h166q33 0 59 -26q25 -25 25 -60v-776h762q37 0 68 -19q32 -20 32 -49v-168q0 -30 -31 -48t-69 -18h-762v-780q0 -32 -25 -57t-59 -25h-166q-36 0 -71 26t-35 56v780h-740q-68 0 -68 66z" />
<glyph unicode="w" d="M350 588l766 1042h578l-718 -1020l702 -1004h-602z" />
<glyph unicode="x" d="M350 1624h576l764 -1036l-724 -980h-600l700 1002z" />
<glyph unicode="y" d="M448 616q0 70 30 118q54 84 400 424q80 80 370 362l58 58q49 47 116 47h3q70 -2 117 -50q47 -49 47 -115q-1 -72 -51 -120l-58 -58q-566 -552 -672 -666q104 -112 672 -666l58 -56q51 -48 51 -120q0 -67 -47 -116q-50 -50 -120 -50q-68 0 -116 48l-58 58 q-613 597 -708 706q-85 97 -90 160q-2 16 -2 36z" />
<glyph unicode="z" d="M502 -108l60 58q559 546 670 666q-96 105 -670 666l-60 58q-47 47 -49 116v5q0 65 47 113q48 50 118 50q68 0 116 -48l60 -56q610 -598 708 -708q84 -97 90 -160v-36q0 -68 -30 -118q-56 -84 -402 -426q-98 -96 -366 -360l-60 -56q-47 -47 -114 -47h-3q-70 2 -117 50 q-47 49 -47 115q0 71 49 118z" />
<glyph unicode="&#x2000;" horiz-adv-x="821" />
<glyph unicode="&#x2001;" horiz-adv-x="1642" />
<glyph unicode="&#x2002;" horiz-adv-x="821" />
<glyph unicode="&#x2003;" horiz-adv-x="1642" />
<glyph unicode="&#x2004;" horiz-adv-x="547" />
<glyph unicode="&#x2005;" horiz-adv-x="410" />
<glyph unicode="&#x2006;" horiz-adv-x="273" />
<glyph unicode="&#x2007;" horiz-adv-x="273" />
<glyph unicode="&#x2008;" horiz-adv-x="205" />
<glyph unicode="&#x2009;" horiz-adv-x="328" />
<glyph unicode="&#x200a;" horiz-adv-x="91" />
<glyph unicode="&#x202f;" horiz-adv-x="328" />
<glyph unicode="&#x205f;" horiz-adv-x="410" />
<glyph unicode="&#x25fc;" horiz-adv-x="1620" d="M0 0v1620h1620v-1620h-1620z" />
</font>
</defs>
</svg>
